<svg xmlns="http://www.w3.org/2000/svg" viewBox="0 0 780 220" fill="none">
  <defs>
    <linearGradient id="soniq-surface" x1="40" y1="24" x2="224" y2="236" gradientUnits="userSpaceOnUse">
      <stop offset="0%" stop-color="#111827" />
      <stop offset="50%" stop-color="#09090B" />
      <stop offset="100%" stop-color="#1E1B4B" />
    </linearGradient>
    <linearGradient id="soniq-brand" x1="72" y1="64" x2="196" y2="192" gradientUnits="userSpaceOnUse">
      <stop offset="0%" stop-color="#67E8F9" />
      <stop offset="52%" stop-color="#22D3EE" />
      <stop offset="100%" stop-color="#6366F1" />
    </linearGradient>
    <radialGradient id="soniq-glow" cx="0" cy="0" r="1" gradientUnits="userSpaceOnUse" gradientTransform="translate(92 110) rotate(90) scale(54)">
      <stop offset="0%" stop-color="#22D3EE" stop-opacity="0.3" />
      <stop offset="58%" stop-color="#22D3EE" stop-opacity="0.07" />
      <stop offset="100%" stop-color="#22D3EE" stop-opacity="0" />
    </radialGradient>
  </defs>

  <g id="icon" transform="translate(0 -18)">
    <rect id="tile" x="20" y="38" width="144" height="144" rx="36" fill="url(#soniq-surface)" />
    <rect x="20.5" y="38.5" width="143" height="143" rx="35.5" stroke="#A5B4FC" stroke-opacity="0.14" />
    <circle id="halo" cx="92" cy="110" r="54" fill="url(#soniq-glow)" />
    <g id="mark" transform="translate(92 110)">
      <circle id="orbit" cx="0" cy="0" r="40" stroke="url(#soniq-brand)" stroke-width="12" />
      <path id="tail" d="M28 28L47 47" stroke="url(#soniq-brand)" stroke-width="12" stroke-linecap="round" />
      <g id="bars" fill="#F8FAFC">
        <rect id="bar-left" x="-20" y="-14" width="9" height="28" rx="4.5" opacity="0.78" />
        <rect id="bar-center" x="-4.5" y="-27" width="9" height="54" rx="4.5" />
        <rect id="bar-right" x="11" y="-10" width="9" height="20" rx="4.5" opacity="0.78" />
      </g>
    </g>
  </g>

  <g id="wordmark" transform="translate(208 42)" stroke-linecap="round" stroke-linejoin="round" stroke-width="12">
    <g stroke="#0F172A">
      <path d="M86 30C78 20 64 14 46 14H36C19 14 6 26 6 42C6 56 16 65 35 70L57 75C77 80 88 89 88 103C88 120 74 132 55 132H40C25 132 13 127 4 117" />
      <g transform="translate(116 0)">
        <circle cx="34" cy="78" r="30" />
      </g>
      <g transform="translate(208 0)">
        <path d="M0 132V70C0 37 18 16 46 16C74 16 92 37 92 70V132" />
      </g>
      <g transform="translate(334 0)">
        <circle cx="6" cy="26" r="5.5" fill="#0F172A" stroke="none" />
        <path d="M6 54V132" />
      </g>
    </g>
    <g transform="translate(382 0)" stroke="url(#soniq-brand)">
      <circle cx="34" cy="78" r="30" />
      <path d="M56 100L83 127" />
    </g>
  </g>
</svg>
